<svg class="svg-icon" style="width: 1em; height: 1em;vertical-align: middle;fill: currentColor;overflow: hidden;" viewBox="0 0 1024 1024" version="1.1" xmlns="http://www.w3.org/2000/svg"><path d="M816.9 357.3h-0.3C813.1 192 678.1 59.1 512 59.1S211 192 207.5 357.3h-0.4c-86.9 0-158 71.1-158 158.1s71.1 158.1 158.1 158.1H817c87 0 158.1-71.1 158.1-158.1-0.1-87-71.3-158.1-158.2-158.1z" fill="#FFFFFF" /><path d="M816.9 702.6H207.2c-49.8 0-96.8-19.5-132.2-54.9-35.5-35.5-55-82.5-55-132.3s19.5-96.8 54.9-132.3c28.9-28.9 65.5-47.3 105.1-53 7.8-77.5 42.1-149.5 98.4-204.7C341.1 63.9 424.1 30 512 30s171 33.9 233.7 95.4c56.3 55.2 90.6 127 98.4 204.7 39.5 5.7 76.1 24.1 105 53 35.4 35.4 54.9 82.4 54.9 132.2s-19.5 96.8-54.9 132.3c-35.5 35.4-82.3 55-132.2 55zM207.2 386.4c-71.1 0-129 57.8-129 129 0 71 57.8 129 129 129H817c71.1 0 129-57.8 129-129s-57.8-129-129-129h-28.8l-0.6-28.5C784.4 209.2 660.8 88.2 512 88.2s-272.3 121-275.4 269.6l-0.6 28.5h-28.8zM955 780H86c-11 0-20-9-20-20v-2c0-11 9-20 20-20h869c11 0 20 9 20 20v2c0 11-9 20-20 20zM955 994H86c-11 0-20-9-20-20v-2c0-11 9-20 20-20h869c11 0 20 9 20 20v2c0 11-9 20-20 20z" fill="#1677B3" /><path d="M467 882H153c-11 0-20-9-20-20v-2c0-11 9-20 20-20h314c11 0 20 9 20 20v2c0 11-9 20-20 20zM870 882H556c-11 0-20-9-20-20v-2c0-11 9-20 20-20h314c11 0 20 9 20 20v2c0 11-9 20-20 20z" fill="#7A7A7A" /></svg>